PathFileType	4	(X/Y/Z)	C:/Users/beibeiliu/ov580/test_trc/User3\sequence.34_training_dense_left.trc
DataRate	CameraRate	NumFrames	NumMarkers	Units	OrigDataRate	OrigDataStartFrame	OrigNumFrames
120	120	21	19	mm	120	157	250
Frame#	Time	ThumbCMC			ThumbMCP			ThumbIP			ThumbTip			IndexMCP			IndexPIP			IndexTip			MiddleMCP			MiddlePIP			MiddleTip			RingMCP			RingPIP			RingTip			PinkyMCP			PinkyPIP			PinkyTip			BackHand1			BackHand2			BackHand3	
		X0	Y0	Z0	X1	Y1	Z1	X2	Y2	Z2	X3	Y3	Z3	X4	Y4	Z4	X5	Y5	Z5	X6	Y6	Z6	X7	Y7	Z7	X8	Y8	Z8	X9	Y9	Z9	X10	Y10	Z10	X11	Y11	Z11	X12	Y12	Z12	X13	Y13	Z13	X14	Y14	Z14	X15	Y15	Z15	X16	Y16	Z16	X17	Y17	Z17	X18	Y18	Z18	
156	1.3	-190.151	-33.3553	18.312	-161.628	-16.0047	2.51296	-131.658	-9.2552	-12.5747	-106.506	-17.7681	-12.4067	-165.853	-61.252	-49.5099	-155.855	-54.4769	-73.0419	-142.784	-44.1344	-92.2243	-151.085	-80.5959	-46.6953	-140.162	-75.6458	-72.7864	-120.952	-61.7387	-97.6152	-132.68	-79.5145	-31.7438	-117.459	-63.7594	-53.072	-101.372	-36.4836	-53.4543	-122.758	-71.1072	-9.04473	-107.784	-50.196	-19.508	-106.718	-24.0542	-3.20362	-160.707	-88.294	13.5326	-174.787	-88.652	41.3678	-190.461	-75.4877	13.5895	
157	1.30833	-193.112	-32.0408	20.4967	-163.019	-12.6707	6.43014	-130.622	-8.2266	-8.31134	-107.592	-22.1307	-5.77592	-170.142	-59.4042	-49.1847	-158.588	-54.2802	-71.8304	-146.127	-47.0251	-95.4998	-150.271	-79.1462	-42.1506	-140.288	-74.6952	-72.7948	-119.802	-64.4927	-99.4526	-131.065	-78.965	-28.6972	-116.669	-67.5836	-51.5359	-97.2127	-43.5392	-60.1526	-118.489	-70.9668	-9.63195	-106.417	-48.3607	-17.5666	-113.025	-24.4078	-1.3235	-157.462	-89.989	14.1195	-171.913	-90.8985	42.6364	-194.501	-73.5243	14.6056	
158	1.31667	-189.294	-33.672	19.8459	-159.84	-11.1198	4.46088	-131.905	-9.53237	-3.08653	-107.437	-19.3335	-2.3467	-166.527	-60.1933	-49.5083	-157.264	-54.8828	-73.32	-146.135	-51.2316	-93.9312	-149.8	-77.1595	-47.4033	-140.399	-74.5017	-69.1449	-122.517	-67.1356	-95.8577	-129.772	-78.1668	-31.7272	-117.091	-69.3239	-52.0373	-97.4736	-54.7251	-64.3539	-116.015	-69.6151	-9.07146	-102.63	-47.6471	-13.074	-111.585	-23.4583	5.72736	-159.357	-87.7192	17.0912	-171.488	-91.7141	43.4458	-192.871	-74.546	13.226	
159	1.325	-190.97	-32.5367	22.1909	-158.748	-10.6235	4.62665	-128.008	-9.10479	-4.9885	-105.025	-21.241	-0.943576	-169.991	-57.3496	-47.4474	-157.94	-54.4314	-76.1666	-146.687	-52.1615	-92.3536	-148.671	-76.8225	-42.8225	-136.679	-74.3915	-70.6124	-123.792	-66.7792	-98.7196	-129.416	-76.7021	-28.1273	-118.381	-69.6342	-52.2222	-99.7434	-57.5296	-68.931	-117.848	-68.038	-8.6009	-106.044	-44.3045	-13.3671	-111.843	-21.8693	2.84725	-158.701	-89.7534	16.6306	-170.891	-92.5726	41.2658	-189.366	-75.6172	13.2612	
160	1.33333	-190.424	-34.2016	23.8228	-160.838	-11.3338	7.12008	-128.808	-6.29831	-2.86288	-102.788	-22.104	-0.149465	-166.046	-59.3096	-48.6418	-159.633	-54.0646	-72.7725	-148.651	-50.9532	-96.7504	-148.908	-74.4598	-46.5384	-137.877	-71.3056	-71.531	-122.172	-66.1926	-100.919	-131.666	-74.8433	-27.1222	-113.13	-70.72	-52.1491	-100.119	-61.9501	-68.2059	-115.471	-67.2889	-5.53145	-103.104	-38.9222	-9.83985	-116.477	-19.1531	7.76174	-159.269	-87.4873	10.988	-173.267	-89.0811	40.1632	-193.028	-74.9115	13.6981	
161	1.34167	-190.974	-34.9357	23.168	-161.522	-8.11158	7.49774	-129.679	-7.05271	-1.7693	-104.779	-19.6188	0.270354	-170.252	-56.296	-47.8436	-163.3	-52.1276	-71.857	-149.263	-49.1531	-96.3469	-148.08	-72.9484	-42.2029	-136.147	-70.928	-69.627	-123.792	-65.8402	-97.9672	-128.965	-74.7507	-29.3368	-118.473	-68.0298	-50.6723	-99.4503	-61.1787	-71.1773	-116.522	-66.3608	-4.57273	-105.733	-41.1374	-11.6689	-112.671	-20.3781	9.69598	-156.814	-87.0305	12.1335	-167.726	-91.4271	40.2046	-188.111	-76.4656	13.5296	
162	1.35	-190.953	-35.3716	22.2222	-161.998	-9.27614	7.22066	-132.744	-2.9758	-0.297292	-109.387	-16.9338	1.34558	-171.856	-55.9069	-48.4956	-160.161	-51.8978	-75.7509	-151.918	-47.9052	-98.0292	-148.034	-72.4056	-46.035	-139.128	-67.4865	-73.6969	-127.52	-62.5263	-99.159	-130.887	-70.8223	-32.46	-117.472	-66.7361	-49.8091	-102.771	-60.7049	-69.4273	-115.482	-64.9815	-7.81277	-103.03	-39.2781	-9.41807	-115.927	-17.8519	11.8063	-158.176	-87.2166	13.8465	-169.957	-91.234	38.6345	-193.925	-74.1274	13.7128	
163	1.35833	-192.255	-33.4878	20.6943	-165.585	-9.65695	8.95404	-130.894	-4.47474	-3.01895	-109.169	-14.4848	0.849065	-170.552	-54.849	-48.7604	-161.307	-50.9884	-75.2298	-154.288	-47.1143	-95.6021	-149.561	-69.8603	-46.4807	-137.697	-66.8893	-68.9472	-129.052	-60.3814	-97.7838	-131.709	-70.7411	-28.3996	-120.844	-65.4718	-49.2738	-106.253	-57.2926	-72.0827	-119.008	-63.1087	-6.67058	-106.229	-38.3609	-11.4442	-113.91	-19.6717	8.31783	-158.932	-88.6213	14.1169	-174.124	-89.9025	39.7679	-194.4	-73.0392	14.7427	
164	1.36667	-191.454	-34.7473	20.551	-165.82	-9.73386	8.63003	-134.017	-7.12414	-1.59511	-109.393	-13.5002	-1.40817	-171.422	-54.2465	-51.2546	-164.614	-49.3675	-75.4061	-154.95	-45.6304	-94.5512	-151.859	-68.6622	-45.34	-138.023	-64.9684	-71.4237	-125.526	-59.5328	-99.7019	-132.069	-69.5624	-30.0252	-117.957	-65.8966	-49.667	-107.712	-56.4518	-69.575	-117.335	-63.2873	-5.13349	-108.904	-35.309	-12.2167	-119.525	-14.8571	7.32501	-157.856	-86.2003	14.7082	-170.991	-91.5892	42.7154	-192.128	-74.6115	11.1789	
165	1.375	-193.113	-33.8921	19.063	-166.032	-11.4906	7.21579	-133.884	-6.03417	-3.69013	-110.58	-14.8529	-1.92324	-172.776	-54.5688	-48.2423	-160.408	-49.5586	-75.293	-151.76	-46.483	-95.3318	-147.899	-68.5094	-46.1641	-137.048	-62.9392	-73.8198	-128.752	-55.4191	-100.535	-134.684	-67.2351	-32.7767	-120.165	-62.4234	-54.1159	-108.702	-54.5667	-71.7958	-119.325	-60.2907	-9.56146	-105.237	-36.8606	-11.4398	-117.772	-16.6483	5.00636	-157.358	-88.5461	13.8102	-171.696	-91.2983	37.5049	-190.069	-77.1668	12.6351	
166	1.38333	-194.912	-33.6475	18.7592	-167.66	-8.79833	5.6477	-136.133	-1.71364	-7.04221	-113.603	-15.5767	-2.76095	-171.594	-55.2299	-47.6987	-160.239	-50.1046	-74.9494	-152.997	-45.6384	-98.9928	-147.915	-67.7648	-49.3554	-137.087	-60.6398	-73.061	-125.677	-53.8105	-99.8833	-131.356	-69.207	-30.1043	-122.497	-60.4988	-51.9957	-106.859	-52.661	-70.4262	-116.193	-58.9177	-9.80763	-111.421	-32.5885	-13.8338	-117.598	-13.5299	5.5241	-156.577	-88.3612	14.5578	-172.46	-89.593	39.2492	-192.75	-74.2885	10.0747	
167	1.39167	-197.838	-35.9424	21.1056	-167.66	-12.0261	3.14419	-140.857	-1.83991	-6.75443	-112.614	-12.2835	-5.78515	-168.485	-57.9464	-51.9474	-155.919	-52.4962	-74.0976	-145.706	-48.3504	-94.9526	-145.47	-67.6848	-47.156	-136.056	-59.8137	-69.9052	-121.204	-51.9399	-97.4057	-135.43	-67.2788	-29.857	-121.695	-60.2735	-53.1197	-107.672	-49.8333	-73.4866	-121.512	-59.958	-9.90592	-109.541	-34.2129	-14.4	-117.522	-12.8367	4.59563	-155.823	-88.1764	12.1967	-170.086	-89.726	40.1621	-191.73	-75.8884	9.74424	
168	1.4	-194.358	-37.5368	17.9957	-171.452	-11.2851	4.85996	-139.387	-7.1296	-6.83997	-113.48	-11.3303	-7.15956	-167.239	-58.0444	-50.1552	-151.279	-53.0676	-72.374	-138.889	-49.9479	-91.0485	-146.402	-64.9599	-48.8257	-134.028	-57.7406	-69.5265	-119.276	-48.6969	-98.3503	-132.132	-65.0614	-35.101	-123.604	-56.3662	-54.9193	-110.444	-47.0036	-71.4085	-120.833	-60.0442	-10.4498	-113.023	-32.1915	-16.9405	-121.889	-15.2856	1.32522	-157.568	-86.7372	13.4701	-168.092	-89.9417	39.6476	-193.837	-78.2832	10.9025	
169	1.40833	-198.816	-34.2635	20.0323	-168.646	-14.5634	2.64809	-139.212	-9.51762	-8.17863	-116.838	-14.0036	-6.06626	-166.249	-57.4382	-49.7241	-152.884	-51.3858	-72.3279	-139.091	-47.1848	-89.118	-143.856	-65.7633	-45.6521	-133.891	-54.3955	-71.3166	-120.141	-46.5973	-92.9831	-134.199	-66.2289	-30.9309	-118.843	-58.1168	-51.5434	-104.293	-45.792	-73.5746	-123.551	-59.7567	-12.3903	-110.283	-34.686	-14.3252	-120.442	-17.3905	5.54826	-159.513	-85.5495	12.8221	-172.91	-91.0565	39.0657	-191.826	-78.1434	10.9483	
170	1.41667	-196.55	-35.5459	15.9178	-171.086	-9.88428	1.28973	-143.174	-5.79131	-8.6186	-114.5	-16.6465	-7.19608	-162.654	-56.8687	-50.8469	-150.175	-51.2537	-69.7132	-134.533	-46.6894	-88.1569	-141.765	-65.3211	-47.2935	-132.239	-54.0885	-71.0536	-113.707	-45.1319	-89.1343	-128.955	-64.9741	-34.1694	-118.208	-54.3642	-53.7968	-106.004	-43.5796	-68.3823	-119.724	-62.1347	-9.94315	-112.792	-36.9482	-16.0989	-124.869	-18.9112	7.96932	-155.937	-86.27	14.5436	-169.731	-91.7358	39.958	-192.008	-78.4448	12.0548	
171	1.425	-198.073	-36.5716	17.9881	-170.606	-14.7377	2.77365	-140.851	-11.3185	-9.24572	-119.306	-16.4967	-7.9397	-162.317	-56.6798	-50.5711	-147.425	-51.27	-67.0024	-131.986	-46.4913	-86.9472	-142.466	-65.5957	-45.9242	-131.692	-55.2595	-65.3283	-113.141	-43.1034	-90.3818	-132.552	-65.1164	-31.5264	-119.2	-56.4979	-48.2472	-103.211	-41.7828	-69.4235	-120.311	-63.013	-7.82294	-111.61	-35.3133	-14.6343	-122.549	-20.1772	5.92084	-154.493	-87.1	11.4444	-172.394	-92.3838	41.6555	-194.86	-76.0548	11.9203	
172	1.43333	-197.161	-36.7235	19.0553	-171.574	-11.2894	2.07164	-141.195	-10.7303	-10.4253	-115.215	-14.1523	-9.85886	-165.401	-57.5621	-46.1935	-148.121	-52.2732	-66.6144	-135.855	-45.3362	-85.7207	-142.303	-65.8568	-42.2027	-130.945	-54.4711	-66.3528	-111.102	-42.2299	-90.7712	-131.886	-64.4938	-33.9004	-117.878	-54.5716	-51.0344	-102.062	-42.9724	-66.1468	-117.471	-63.5012	-7.11236	-110.912	-34.9497	-12.5668	-123.02	-17.9141	11.2402	-159.19	-86.3324	10.5426	-170.064	-92.3918	39.7728	-191.106	-78.5695	15.0002	
173	1.44167	-194.434	-38.3899	19.3175	-168.403	-16.0792	2.51532	-139.021	-8.27936	-11.9513	-116.466	-17.1264	-9.29277	-164.137	-57.7564	-45.1705	-147.595	-50.2701	-70.6994	-132.371	-45.1995	-84.1965	-143.734	-65.9474	-43.5351	-130.288	-55.2619	-68.9055	-114.493	-42.9424	-93.3425	-133.985	-65.374	-30.2519	-117.326	-58.1401	-48.9266	-107.434	-43.7451	-70.2609	-120.172	-63.4743	-10.533	-112.174	-36.1785	-14.2788	-120.924	-18.6488	9.26188	-162.067	-87.9204	12.357	-170.638	-89.9013	37.5126	-194.549	-76.567	10.2845	
174	1.45	-193.946	-37.6274	19.282	-168.457	-17.3643	2.19482	-139.049	-8.31633	-11.94	-117.522	-20.5005	-8.63356	-169.197	-56.1273	-46.8327	-149.057	-48.6541	-68.9906	-134.973	-40.3678	-88.5429	-145.641	-67.0818	-45.0946	-130.969	-57.0186	-70.2179	-117.795	-47.7657	-91.0835	-131.437	-68.4561	-32.0718	-122.533	-57.0527	-53.8776	-107.531	-45.4621	-71.5212	-120.052	-64.1416	-10.9008	-113.481	-38.3462	-17.2676	-121.095	-20.0808	6.20928	-157.715	-89.6964	11.4454	-170.334	-92.2164	39.2076	-194.321	-76.8969	12.7781	
175	1.45833	-196.095	-37.8921	22.2094	-169.341	-13.2602	1.36113	-140.414	-10.1062	-9.28857	-114.406	-14.7884	-10.2899	-166.036	-56.2892	-46.6454	-157.608	-47.2839	-69.522	-142.69	-37.991	-90.1637	-146.463	-68.5761	-46.5961	-135.152	-61.2014	-67.8861	-120.288	-48.9038	-96.4854	-134.55	-68.5298	-32.5113	-124.746	-58.4933	-55.3257	-111.978	-48.7346	-72.0407	-119.451	-64.15	-12.232	-112.636	-38.8517	-17.2226	-121.229	-18.0754	3.58845	-161.156	-87.2239	15.5722	-172.024	-90.2824	38.6236	-194.53	-76.8791	14.2765	
176	1.46667	-194.345	-37.0389	17.8851	-169.158	-13.0136	1.58812	-141.013	-7.8858	-9.29299	-115.611	-14.6918	-10.2551	-168.83	-57.2472	-47.8613	-155.69	-48.0428	-73.1908	-147.603	-40.492	-91.6246	-148.126	-69.3301	-47.5487	-139.645	-61.3404	-69.951	-125.142	-51.545	-100.154	-134.677	-69.628	-32.7247	-123.192	-63.4978	-53.8954	-112.129	-50.4818	-77.8644	-124.17	-63.1252	-13.4372	-111.645	-36.1102	-16.7338	-120.899	-17.9391	2.84644	-159.08	-88.4036	14.3319	-170.368	-91.4363	39.0695	-194.283	-77.651	10.5313	
